0
SECTION
2
HEADER
9
$INSUNITS
70
4
9
$ACADVER
1
AC1014
9
$HANDSEED
5
FFFF
0
ENDSEC
0
SECTION
2
TABLES
0
TABLE
2
VPORT
5
8
100
AcDbSymbolTable
0
ENDTAB
0
TABLE
2
LTYPE
5
5
100
AcDbSymbolTable
0
LTYPE
5
14
100
AcDbSymbolTableRecord
100
AcDbLinetypeTableRecord
2
BYBLOCK
70
0
0
LTYPE
5
15
100
AcDbSymbolTableRecord
100
AcDbLinetypeTableRecord
2
BYLAYER
70
0
0
LTYPE
5
16
100
AcDbSymbolTableRecord
100
AcDbLinetypeTableRecord
2
DASHED
70
0
3
Dashed __ __ __ __ __ __ __ __ __ __ __ __ __ _
72
65
73
2
40
0.75
49
0.5
74
0
49
-0.25
74
0
0
ENDTAB
0
TABLE
2
LAYER
5
2
100
AcDbSymbolTable
70
3
0
LAYER
5
50
100
AcDbSymbolTableRecord
100
AcDbLayerTableRecord
2
1
70
0
62
7
6
DASHED
0
LAYER
5
51
100
AcDbSymbolTableRecord
100
AcDbLayerTableRecord
2
0
70
0
62
7
6
CONTINUOUS
0
ENDTAB
0
TABLE
2
STYLE
5
3
100
AcDbSymbolTable
70
1
0
STYLE
5
11
100
AcDbSymbolTableRecord
100
AcDbTextStyleTableRecord
2
STANDARD
70
0
0
ENDTAB
0
TABLE
2
VIEW
5
6
100
AcDbSymbolTable
70
0
0
ENDTAB
0
TABLE
2
UCS
5
7
100
AcDbSymbolTable
70
0
0
ENDTAB
0
TABLE
2
APPID
5
9
100
AcDbSymbolTable
70
2
0
APPID
5
12
100
AcDbSymbolTableRecord
100
AcDbRegAppTableRecord
2
ACAD
70
0
0
ENDTAB
0
TABLE
2
DIMSTYLE
5
A
100
AcDbSymbolTable
70
1
0
ENDTAB
0
TABLE
2
BLOCK_RECORD
5
1
100
AcDbSymbolTable
70
1
0
BLOCK_RECORD
5
1F
100
AcDbSymbolTableRecord
100
AcDbBlockTableRecord
2
*MODEL_SPACE
0
BLOCK_RECORD
5
1B
100
AcDbSymbolTableRecord
100
AcDbBlockTableRecord
2
*PAPER_SPACE
0
ENDTAB
0
ENDSEC
0
SECTION
2
BLOCKS
0
BLOCK
5
20
100
AcDbEntity
100
AcDbBlockBegin
2
*MODEL_SPACE
0
ENDBLK
5
21
100
AcDbEntity
100
AcDbBlockEnd
0
BLOCK
5
1C
100
AcDbEntity
100
AcDbBlockBegin
2
*PAPER_SPACE
0
ENDBLK
5
1D
100
AcDbEntity
100
AcDbBlockEnd
0
ENDSEC
0
SECTION
2
ENTITIES
0
LWPOLYLINE
5
100
100
AcDbEntity
8
0
100
AcDbPolyline
90
4
70
1
43
0.0
10
-150
20
-8.25
10
-150
20
8.25
10
-330
20
8.25
10
-330
20
-8.25
0
LINE
5
101
100
AcDbEntity
8
0
100
AcDbLine
10
-301.8259999999982
20
7.9368662572593607
30
0
11
-298.72746162371902
21
4.8383278809803443
31
0
0
LINE
5
102
100
AcDbEntity
8
0
100
AcDbLine
10
-298.72746162371902
20
4.8383278809803443
30
0
11
-294.60011157055715
21
1.9368662572593465
31
0
0
LINE
5
103
100
AcDbEntity
8
0
100
AcDbLine
10
-294.54598327603367
20
1.9368662572593465
30
0
11
-275.45388302703674
21
1.9368662572593465
31
0
0
LINE
5
104
100
AcDbEntity
8
0
100
AcDbLine
10
-275.39975473251326
20
1.9368662572593465
30
0
11
-271.27240467935133
21
4.8383278809803443
31
0
0
LINE
5
105
100
AcDbEntity
8
0
100
AcDbLine
10
-271.27240467935133
20
4.8383278809803443
30
0
11
-268.17386630307192
21
7.9368662572593607
31
0
0
LINE
5
106
100
AcDbEntity
8
0
100
AcDbLine
10
-208.72746162371806
20
4.8383278809800245
30
0
11
-211.15187500008463
21
7.2627412573470451
31
0
0
LINE
5
107
100
AcDbEntity
8
0
100
AcDbLine
10
-208.72746162371806
20
4.8383278809800245
30
0
11
-204.60011157055615
21
1.9368662572590267
31
0
0
LINE
5
108
100
AcDbEntity
8
0
100
AcDbLine
10
-204.54598327603264
20
1.9368662572590267
30
0
11
-185.45388302703574
21
1.9368662572590267
31
0
0
LINE
5
109
100
AcDbEntity
8
0
100
AcDbLine
10
-185.39975473251224
20
1.9368662572590267
30
0
11
-181.27240467935036
21
4.8383278809800245
31
0
0
LINE
5
110
100
AcDbEntity
8
0
100
AcDbLine
10
-181.27240467935036
20
4.8383278809800245
30
0
11
-178.17386630307089
21
7.9368662572590409
31
0
0
LINE
5
111
100
AcDbEntity
8
0
100
AcDbLine
10
-118.72746162371811
20
4.8383278809800245
30
0
11
-114.60011157055621
21
1.9368662572590267
31
0
0
LINE
5
112
100
AcDbEntity
8
0
100
AcDbLine
10
-121.82599999999731
20
7.9368662572590409
30
0
11
-118.72746162371811
21
4.8383278809800245
31
0
0
LINE
5
113
100
AcDbEntity
8
0
100
AcDbLine
10
-114.54598327603271
20
1.9368662572590267
30
0
11
-95.453883027035801
21
1.9368662572590267
31
0
0
LINE
5
114
100
AcDbEntity
8
0
100
AcDbLine
10
-91.272404679350402
20
4.8383278809800245
30
0
11
-88.847991302983601
21
7.2627412573470451
31
0
0
LINE
5
115
100
AcDbEntity
8
0
100
AcDbLine
10
-330
20
8.2663290565709673
30
0
11
-330
21
3.0163290565709677
31
0
0
LINE
5
116
100
AcDbEntity
8
0
100
AcDbLine
10
30
20
3.0163290565709677
30
0
11
30
21
8.2663290565709673
31
0
0
LINE
5
117
100
AcDbEntity
8
0
100
AcDbLine
10
30
20
8.2663290565709673
30
0
11
-330
21
8.2663290565709673
31
0
0
LINE
5
118
100
AcDbEntity
8
0
100
AcDbLine
10
-91.272404679350402
20
4.8383278809800245
30
0
11
-88.173866303070994
21
7.9368662572590409
31
0
0
LINE
5
119
100
AcDbEntity
8
0
100
AcDbLine
10
-95.399754732512307
20
1.9368662572590267
30
0
11
-91.272404679350402
21
4.8383278809800245
31
0
0
LINE
5
120
100
AcDbEntity
8
0
100
AcDbLine
10
-31.825999999997308
20
7.9368662572590409
30
0
11
-28.727461623718106
21
4.8383278809800245
31
0
0
LINE
5
121
100
AcDbEntity
8
0
100
AcDbLine
10
-28.727461623718106
20
4.8383278809800245
30
0
11
-24.600111570556198
21
1.9368662572590267
31
0
0
LINE
5
122
100
AcDbEntity
8
0
100
AcDbLine
10
-24.545983276032707
20
1.9368662572590267
30
0
11
-5.4538830270357996
21
1.9368662572590267
31
0
0
LINE
5
123
100
AcDbEntity
8
0
100
AcDbLine
10
-5.399754732512303
20
1.9368662572590267
30
0
11
-1.2724046793504007
21
4.8383278809800245
31
0
0
LINE
5
124
100
AcDbEntity
8
0
100
AcDbLine
10
-1.2724046793504007
20
4.8383278809800245
30
0
11
1.8261336969290021
21
7.9368662572590409
31
0
0
LINE
5
125
100
AcDbEntity
8
0
100
AcDbLine
10
-301.8259999999982
20
7.9368662572593607
30
0
11
-302.15546279930987
21
8.2663290565709673
31
0
0
LINE
5
126
100
AcDbEntity
8
0
100
AcDbLine
10
-268.17386630307192
20
7.9368662572593607
30
0
11
-267.8444035037603
21
8.2663290565709673
31
0
0
LINE
5
127
100
AcDbEntity
8
0
100
AcDbLine
10
-302.15546279930987
20
8.2663290565709673
30
0
11
-267.8444035037603
21
8.2663290565709673
31
0
0
LWPOLYLINE
5
128
100
AcDbEntity
8
0
100
AcDbPolyline
90
4
70
1
43
0.0
10
-150
20
8.25
10
-150
20
-8.25
10
24.298748844058267
20
-8.25
10
24.298748844057982
20
8.25
0
LINE
5
129
100
AcDbEntity
8
0
100
AcDbLine
10
-301.8259999999982
20
7.9368662572593607
30
0
11
-298.72746162371902
21
4.8383278809803443
31
0
0
LINE
5
130
100
AcDbEntity
8
0
100
AcDbLine
10
-294.54598327603367
20
1.9368662572593465
30
0
11
-298.72746162371902
21
4.8383278809803443
31
0
0
LINE
5
131
100
AcDbEntity
8
0
100
AcDbLine
10
-294.60011157055715
20
1.9368662572593465
30
0
11
-275.45388302703674
21
1.9368662572593465
31
0
0
LINE
5
132
100
AcDbEntity
8
0
100
AcDbLine
10
-275.45388302703674
20
1.9368662572593465
30
0
11
-271.27240467935133
21
4.8383278809803443
31
0
0
LINE
5
133
100
AcDbEntity
8
0
100
AcDbLine
10
-271.27240467935133
20
4.8383278809803443
30
0
11
-267.8444035037603
21
8.2663290565709673
31
0
0
LWPOLYLINE
5
134
100
AcDbEntity
8
0
100
AcDbPolyline
90
7
70
1
43
0.0
10
-211.15187500008463
20
-232.72579368088844
10
-212.15272929144635
20
-231.72493938952655
10
-177.86270876053163
20
-231.74051113843717
10
-181.27240467935036
20
-235.15020705725544
10
-185.39975473251224
20
-238.05166868097646
10
-204.60011157055615
20
-238.05166868097646
10
-208.72746162371806
20
-235.15020705725547
0
LWPOLYLINE
5
135
100
AcDbEntity
8
0
100
AcDbPolyline
90
6
70
1
43
0.0
10
-122.30222939114836
20
-231.72493938952655
10
-118.72746162371811
20
-235.29970715695654
10
-114.60011157055621
20
-238.20116878067753
10
-95.453883027035801
20
-238.20116878067753
10
-91.272404679350402
20
-235.26165582443213
10
-87.71735295989987
20
-231.70660410498203
0
LWPOLYLINE
5
136
100
AcDbEntity
8
0
100
AcDbPolyline
90
6
70
1
43
0.0
10
-32.153272386090379
20
-231.67714662723739
10
-28.727461623718106
20
-235.1029573896094
10
-24.545983276032707
20
-238.04247034585478
10
-5.399754732512303
20
-238.04247034585478
10
-1.2724046793504007
20
-235.14100872213376
10
2.1157756532472884
20
-231.75282838953649
0
LINE
5
137
100
AcDbEntity
8
0
100
AcDbLine
10
-204.54598327603264
20
1.9368662572590267
30
0
11
-208.72746162371806
21
4.8383278809800245
31
0
0
LINE
5
138
100
AcDbEntity
8
0
100
AcDbLine
10
-208.72746162371806
20
4.8383278809800245
30
0
11
-211.15187500008463
21
7.2627412573470451
31
0
0
LINE
5
139
100
AcDbEntity
8
0
100
AcDbLine
10
-211.15187500008463
20
7.2627412573470451
30
0
11
-212.15546279930837
21
8.2663290565709673
31
0
0
LINE
5
140
100
AcDbEntity
8
0
100
AcDbLine
10
-204.54598327603264
20
1.9368662572590267
30
0
11
-185.39975473251224
21
1.9368662572590267
31
0
0
LINE
5
141
100
AcDbEntity
8
0
100
AcDbLine
10
-181.27240467935036
20
4.8383278809800245
30
0
11
-178.17386630307089
21
7.9368662572590409
31
0
0
LINE
5
142
100
AcDbEntity
8
0
100
AcDbLine
10
-181.27240467935036
20
4.8383278809800245
30
0
11
-185.39975473251224
21
1.9368662572590267
31
0
0
LINE
5
143
100
AcDbEntity
8
0
100
AcDbLine
10
-178.17386630307089
20
7.9368662572590409
30
0
11
-177.84440350375891
21
8.2663290565709673
31
0
0
LINE
5
144
100
AcDbEntity
8
0
100
AcDbLine
10
-177.84440350375891
20
8.2663290565709673
30
0
11
-212.15546279930837
21
8.2663290565709673
31
0
0
LINE
5
145
100
AcDbEntity
8
0
100
AcDbLine
10
-121.82599999999731
20
7.9368662572590409
30
0
11
-121.82599999999731
21
8.2663290565709673
31
0
0
LINE
5
146
100
AcDbEntity
8
0
100
AcDbLine
10
-118.72746162371811
20
4.8383278809800245
30
0
11
-114.54598327603271
21
1.9368662572590267
31
0
0
LINE
5
147
100
AcDbEntity
8
0
100
AcDbLine
10
-118.72746162371811
20
4.8383278809800245
30
0
11
-121.82599999999731
21
7.9368662572590409
31
0
0
LINE
5
148
100
AcDbEntity
8
0
100
AcDbLine
10
-114.60011157055621
20
1.9368662572590267
30
0
11
-95.453883027035801
21
1.9368662572590267
31
0
0
LINE
5
149
100
AcDbEntity
8
0
100
AcDbLine
10
-95.453883027035801
20
1.9368662572590267
30
0
11
-91.272404679350402
21
4.8383278809800245
31
0
0
LWPOLYLINE
5
150
100
AcDbEntity
8
0
100
AcDbPolyline
90
2
70
1
43
0.0
10
-91.272404679350402
20
4.8383278809800245
10
-88.847991302983601
20
7.2627412573470451
0
LINE
5
151
100
AcDbEntity
8
0
100
AcDbLine
10
-88.847991302983601
20
7.2627412573470451
30
0
11
-88.173866303070994
21
7.9368662572590409
31
0
0
LINE
5
152
100
AcDbEntity
8
0
100
AcDbLine
10
-88.173866303070994
20
7.9368662572590409
30
0
11
-87.844403503759025
21
8.2663290565709673
31
0
0
LINE
5
153
100
AcDbEntity
8
0
100
AcDbLine
10
-87.844403503759025
20
8.2663290565709673
30
0
11
-121.82599999999731
21
8.2663290565709673
31
0
0
LINE
5
154
100
AcDbEntity
8
0
100
AcDbLine
10
-31.825999999997308
20
7.9368662572590409
30
0
11
-32.155462799309255
21
8.2663290565709673
31
0
0
LINE
5
155
100
AcDbEntity
8
0
100
AcDbLine
10
-31.825999999997308
20
7.9368662572590409
30
0
11
-28.727461623718106
21
4.8383278809800245
31
0
0
LINE
5
156
100
AcDbEntity
8
0
100
AcDbLine
10
-28.727461623718106
20
4.8383278809800245
30
0
11
-24.545983276032707
21
1.9368662572590267
31
0
0
LINE
5
157
100
AcDbEntity
8
0
100
AcDbLine
10
-24.545983276032707
20
1.9368662572590267
30
0
11
-5.4538830270357996
21
1.9368662572590267
31
0
0
LINE
5
158
100
AcDbEntity
8
0
100
AcDbLine
10
-5.4538830270357996
20
1.9368662572590267
30
0
11
-1.2724046793504007
21
4.8383278809800245
31
0
0
LINE
5
159
100
AcDbEntity
8
0
100
AcDbLine
10
-1.2724046793504007
20
4.8383278809800245
30
0
11
1.8261336969290021
21
7.9368662572590409
31
0
0
LINE
5
160
100
AcDbEntity
8
0
100
AcDbLine
10
1.8261336969290021
20
7.9368662572590409
30
0
11
2.1555964962409702
21
8.2663290565709673
31
0
0
LINE
5
161
100
AcDbEntity
8
0
100
AcDbLine
10
2.1555964962409702
20
8.2663290565709673
30
0
11
-32.155462799309255
21
8.2663290565709673
31
0
0
ENDSEC
0
SECTION
2
OBJECTS
0
DICTIONARY
5
C
100
AcDbDictionary
3
ACAD_GROUP
350
D
3
ACAD_MLINESTYLE
350
17
0
DICTIONARY
5
D
100
AcDbDictionary
0
DICTIONARY
5
1A
330
C
100
AcDbDictionary
0
DICTIONARY
5
17
100
AcDbDictionary
0
ENDSEC
0
EOF
